{
  "accessors": [
    {
      "bufferView": 3,
      "componentType": 5126,
      "count": 687,
      "max": [
        471.8173828125,
        25.909311294555664,
        12.964865684509277
      ],
      "min": [
        424.93994140625,
        -5.609091758728027,
        -5.981133460998535
      ],
      "type": "VEC3"
    },
    {
      "bufferView": 3,
      "byteOffset": 8244,
      "componentType": 5126,
      "count": 687,
      "max": [
        0.9993118643760681,
        0.9996668696403503,
        0.9989866018295288
      ],
      "min": [
        -0.9999989867210388,
        -0.999898374080658,
        -0.9989866018295288
      ],
      "type": "VEC3"
    },
    {
      "bufferView": 2,
      "componentType": 5126,
      "count": 687,
      "max": [
        0.9906266927719116,
        0.9846725463867188
      ],
      "min": [
        0.006694725714623928,
        0.012391112744808197
      ],
      "type": "VEC2"
    },
    {
      "bufferView": 1,
      "componentType": 5125,
      "count": 2790,
      "type": "SCALAR"
    },
    {
      "bufferView": 5,
      "componentType": 5126,
      "count": 27,
      "max": [
        1.0,
        0.14871284365653992,
        0.13460883498191833,
        0.0,
        0.1486840397119522,
        1.0,
        0.12922370433807373,
        0.0,
        0.14094285666942596,
        0.09568055719137192,
        1.0,
        0.0,
        65.73622131347656,
        68.51176452636719,
        64.43058013916016,
        1.0
      ],
      "min": [
        -0.14807748794555664,
        -0.148686483502388,
        -0.1384207308292389,
        0.0,
        -0.1475328505039215,
        -0.1475326120853424,
        -0.13923627138137817,
        0.0,
        -0.13778921961784363,
        -0.09784407168626785,
        0.01580350287258625,
        0.0,
        -61.89008712768555,
        -68.30391693115234,
        -63.0958366394043,
        1.0
      ],
      "type": "MAT4"
    },
    {
      "bufferView": 0,
      "componentType": 5123,
      "count": 687,
      "type": "VEC4"
    },
    {
      "bufferView": 4,
      "componentType": 5126,
      "count": 687,
      "max": [
        1.0,
        0.4957221746444702,
        0.292325496673584,
        0.2181260883808136
      ],
      "min": [
        0.2744784951210022,
        0.0,
        0.0,
        0.0
      ],
      "type": "VEC4"
    }
  ],
  "asset": {
    "extras": {
      "author": "cjstudio (https://sketchfab.com/cjstudio)",
      "license": "CC-BY-4.0 (http://creativecommons.org/licenses/by/4.0/)",
      "source": "https://sketchfab.com/3d-models/lowpoly-capybara-for-mobile-game-033d29363b3949c9a324ea3fbcd641a5",
      "title": "Lowpoly capybara for mobile game"
    },
    "generator": "Sketchfab-15.22.0",
    "version": "2.0"
  },
  "bufferViews": [
    {
      "buffer": 0,
      "byteLength": 5496,
      "byteStride": 8,
      "name": "shortBufferViews",
      "target": 34962
    },
    {
      "buffer": 0,
      "byteLength": 11160,
      "byteOffset": 5496,
      "name": "floatBufferViews",
      "target": 34963
    },
    {
      "buffer": 0,
      "byteLength": 5496,
      "byteOffset": 16656,
      "byteStride": 8,
      "name": "floatBufferViews",
      "target": 34962
    },
    {
      "buffer": 0,
      "byteLength": 16488,
      "byteOffset": 22152,
      "byteStride": 12,
      "name": "floatBufferViews",
      "target": 34962
    },
    {
      "buffer": 0,
      "byteLength": 10992,
      "byteOffset": 38640,
      "byteStride": 16,
      "name": "floatBufferViews",
      "target": 34962
    },
    {
      "buffer": 0,
      "byteLength": 1728,
      "byteOffset": 49632,
      "name": "floatBufferViews"
    }
  ],
  "buffers": [
    {
      "byteLength": 51360,
      "uri": "scene.bin"
    }
  ],
  "extensionsUsed": [
    "KHR_materials_unlit"
  ],
  "images": [
    {
      "uri": "textures/01_-_Default_baseColor.png"
    }
  ],
  "materials": [
    {
      "doubleSided": true,
      "extensions": {
        "KHR_materials_unlit": {}
      },
      "name": "01_-_Default",
      "pbrMetallicRoughness": {
        "baseColorTexture": {
          "index": 0
        },
        "metallicFactor": 0.0
      }
    }
  ],
  "meshes": [
    {
      "name": "Box002_01 - Default_0",
      "primitives": [
        {
          "attributes": {
            "JOINTS_0": 5,
            "NORMAL": 1,
            "POSITION": 0,
            "TEXCOORD_0": 2,
            "WEIGHTS_0": 6
          },
          "indices": 3,
          "material": 0,
          "mode": 4
        }
      ]
    }
  ],
  "nodes": [
    {
      "children": [
        1
      ],
      "matrix": [
        1.0,
        0.0,
        0.0,
        0.0,
        0.0,
        2.220446049250313e-16,
        -1.0,
        0.0,
        0.0,
        1.0,
        2.220446049250313e-16,
        0.0,
        0.0,
        0.0,
        0.0,
        1.0
      ],
      "name": "Sketchfab_model"
    },
    {
      "children": [
        2
      ],
      "matrix": [
        0.009999999776482582,
        0.0,
        0.0,
        0.0,
        0.0,
        0.0,
        0.009999999776482582,
        0.0,
        0.0,
        -0.009999999776482582,
        0.0,
        0.0,
        0.0,
        0.0,
        0.0,
        1.0
      ],
      "name": "capibara.fbx"
    },
    {
      "children": [
        3,
        6,
        8
      ],
      "name": "RootNode"
    },
    {
      "children": [
        4
      ],
      "matrix": [
        -29.086477364379697,
        -5.518905590722295,
        -95.51711910171437,
        0.0,
        56.63932069164076,
        79.46722539115298,
        -21.839126361216156,
        0.0,
        77.11007920637729,
        -60.452475336912016,
        -19.988344364310564,
        0.0,
        407.6245422363281,
        590.38623046875,
        -100.54539489746094,
        1.0
      ],
      "name": "Light"
    },
    {
      "children": [
        5
      ],
      "matrix": [
        1.0,
        0.0,
        0.0,
        0.0,
        0.0,
        2.220446049250313e-16,
        1.0,
        0.0,
        0.0,
        -1.0,
        2.220446049250313e-16,
        0.0,
        0.0,
        0.0,
        0.0,
        1.0
      ],
      "name": "Object_4"
    },
    {
      "name": "Object_5"
    },
    {
      "children": [
        7
      ],
      "matrix": [
        -65.1558127516791,
        -44.52713915455176,
        -61.417049289096546,
        0.0,
        -32.401349332924404,
        89.53957282709818,
        -30.5420854760369,
        0.0,
        68.59207001076241,
        8.666908837178815e-06,
        -72.76761921184274,
        0.0,
        735.88916015625,
        495.8309326171875,
        692.5791015625,
        1.0
      ],
      "name": "Camera"
    },
    {
      "name": "Object_7"
    },
    {
      "children": [
        9
      ],
      "matrix": [
        3.2020799657348054,
        1.5953477081245238,
        -0.10931314491128584,
        0.0,
        -0.19826607332281387,
        0.1533050100484927,
        -3.5703759613151993,
        0.0,
        -1.586746196883845,
        3.2002686411145316,
        0.22552671279564496,
        0.0,
        246.08853149414063,
        3.164118528366089,
        1.8873937129974365,
        1.0
      ],
      "name": "Armature.001"
    },
    {
      "children": [
        10,
        12,
        11
      ],
      "name": "Object_9"
    },
    {
      "children": [
        13,
        31,
        35
      ],
      "name": "_rootJoint"
    },
    {
      "matrix": [
        0.5331192046358239,
        4.697611294401939e-07,
        2.599744153286565e-08,
        0.0,
        2.599751892980933e-08,
        -8.101904672842418e-08,
        -0.5331193278094121,
        0.0,
        -4.6976051922839933e-07,
        0.5331185166066937,
        -8.101894635640584e-08,
        0.0,
        239.03926935394344,
        5.411224296771118,
        1.8615787043652645,
        1.0
      ],
      "name": "Object_11"
    },
    {
      "mesh": 0,
      "name": "Object_12",
      "skin": 0
    },
    {
      "children": [
        14,
        29
      ],
      "name": "Bone_00",
      "rotation": [
        0.7071068286895752,
        -3.9022314880360535e-17,
        3.9022321497805435e-17,
        0.7071067094802856
      ]
    },
    {
      "children": [
        15,
        20,
        24
      ],
      "name": "Tors_01",
      "rotation": [
        -0.03344501182436943,
        -1.1926988463528687e-07,
        0.5009816288948059,
        0.8648114800453186
      ],
      "translation": [
        7.105427357601002e-15,
        1.0,
        0.0
      ]
    },
    {
      "children": [
        16
      ],
      "name": "Bone.008_02",
      "rotation": [
        -0.176813006401062,
        -0.13992950320243835,
        0.5978335738182068,
        0.7692541480064392
      ],
      "scale": [
        1.0000001192092896,
        1.0,
        1.0000001192092896
      ],
      "translation": [
        -7.217750841448378e-09,
        1.7034319639205933,
        3.725290298461914e-09
      ]
    },
    {
      "children": [
        17
      ],
      "name": "Bicep.R_03",
      "rotation": [
        0.14858931303024292,
        -0.030830353498458862,
        0.09493165463209152,
        0.9838489294052124
      ],
      "scale": [
        0.9999998807907104,
        0.9999999403953552,
        0.9999998211860657
      ],
      "translation": [
        -1.7136335372924805e-07,
        1.5702869892120361,
        -7.450582373280668e-09
      ]
    },
    {
      "children": [
        18
      ],
      "name": "Forearm.R_04",
      "rotation": [
        -0.027584191411733627,
        0.009426472708582878,
        -0.04903661459684372,
        0.9983716011047363
      ],
      "scale": [
        0.9999998807907104,
        0.9999998211860657,
        0.9999998807907104
      ],
      "translation": [
        7.078052988163108e-08,
        0.6039574146270752,
        2.60770320892334e-08
      ]
    },
    {
      "children": [
        19
      ],
      "name": "Bone.011_05",
      "rotation": [
        0.08317063003778458,
        0.06455758959054947,
        -0.5941856503486633,
        0.7974072694778442
      ],
      "scale": [
        1.0,
        0.9999998807907104,
        0.9999999403953552
      ],
      "translation": [
        -3.166496753692627e-07,
        0.6797057390213013,
        4.0978193283081055e-08
      ]
    },
    {
      "name": "Bone.011_end_020",
      "rotation": [
        6.625716706549752e-20,
        8.673617379884035e-19,
        -2.2915700906140827e-18,
        1.0
      ],
      "translation": [
        8.881784197001252e-16,
        0.5985473990440369,
        5.551115123125783e-17
      ]
    },
    {
      "children": [
        21
      ],
      "name": "Bone.012_06",
      "rotation": [
        -0.0015162393683567643,
        5.674480441086871e-09,
        -0.25435781478881836,
        0.9671090245246887
      ],
      "translation": [
        -7.217750841448378e-09,
        1.7034319639205933,
        3.725290298461914e-09
      ]
    },
    {
      "children": [
        22
      ],
      "name": "Bone.013_07",
      "rotation": [
        0.0006525786593556404,
        -9.175030513119964e-09,
        0.10947339981794357,
        0.9939895272254944
      ],
      "scale": [
        1.0,
        0.9999999403953552,
        1.0
      ],
      "translation": [
        -1.4948273019399494e-07,
        1.2033385038375854,
        5.551115123125783e-17
      ]
    },
    {
      "children": [
        23
      ],
      "name": "Head_08",
      "rotation": [
        0.003159925574436784,
        0.006030956748872995,
        0.24216261506080627,
        0.9702118039131165
      ],
      "scale": [
        1.0000001192092896,
        1.0000001192092896,
        1.0
      ],
      "translation": [
        -1.35740265250206e-07,
        1.1337933540344238,
        7.450580596923828e-09
      ]
    },
    {
      "name": "Head_end_021",
      "rotation": [
        0.0,
        -0.0,
        -4.448617038979585e-18,
        1.0
      ],
      "translation": [
        0.0,
        0.8547126650810242,
        0.0
      ]
    },
    {
      "children": [
        25
      ],
      "name": "Bone.016_09",
      "rotation": [
        0.2629394233226776,
        -0.0030860365368425846,
        0.5625379681587219,
        0.7838395237922668
      ],
      "scale": [
        1.0,
        1.0,
        1.0000001192092896
      ],
      "translation": [
        -7.217750841448378e-09,
        1.7034319639205933,
        3.725290298461914e-09
      ]
    },
    {
      "children": [
        26
      ],
      "name": "Bicep.L_010",
      "rotation": [
        -0.1288049966096878,
        -0.040189214050769806,
        0.15253344178199768,
        0.9790442585945129
      ],
      "translation": [
        2.5331974029541016e-07,
        1.5240809917449951,
        -2.2351741790771484e-08
      ]
    },
    {
      "children": [
        27
      ],
      "name": "Forearm.L_011",
      "rotation": [
        -0.002659460296854377,
        0.008045168593525887,
        -0.04114411026239395,
        0.9991173148155212
      ],
      "scale": [
        1.0000001192092896,
        1.0000001192092896,
        1.0000001192092896
      ],
      "translation": [
        -1.4901161193847656e-07,
        0.6186885833740234,
        -4.470348713425665e-08
      ]
    },
    {
      "children": [
        28
      ],
      "name": "Bone.019_012",
      "rotation": [
        -0.2689593732357025,
        0.0015941523015499115,
        -0.535156786441803,
        0.800790548324585
      ],
      "scale": [
        0.9999999403953552,
        0.9999999403953552,
        1.0
      ],
      "translation": [
        -1.341104507446289e-07,
        0.6546317934989929,
        2.2724270820617676e-07
      ]
    },
    {
      "name": "Bone.019_end_022",
      "rotation": [
        -3.186961464044305e-19,
        -1.8702879939074035e-36,
        5.868561895933013e-18,
        1.0
      ],
      "translation": [
        -8.881784197001252e-16,
        0.5767086744308472,
        0.0
      ]
    },
    {
      "children": [
        30
      ],
      "name": "Bone.015_013",
      "rotation": [
        0.0295554231852293,
        0.013973839581012726,
        -0.6738835573196411,
        0.7381139397621155
      ],
      "scale": [
        1.0,
        1.000000238418579,
        1.0
      ],
      "translation": [
        7.105427357601002e-15,
        1.0,
        0.0
      ]
    },
    {
      "name": "Bone.015_end_023",
      "rotation": [
        -5.284287006159245e-18,
        6.938893903907228e-18,
        -2.4461719255385606e-17,
        1.0
      ],
      "translation": [
        -7.105427357601002e-15,
        1.5080217123031616,
        8.881784197001252e-16
      ]
    },
    {
      "children": [
        32
      ],
      "name": "Bone.001_014",
      "rotation": [
        0.3493584990501404,
        -0.3606221675872803,
        0.8503057360649109,
        -0.15773539245128632
      ]
    },
    {
      "children": [
        33
      ],
      "name": "Leg.L_015",
      "rotation": [
        -0.3109501302242279,
        -0.22900058329105377,
        0.11770807206630707,
        0.9148845672607422
      ],
      "scale": [
        0.9999999403953552,
        0.9999998807907104,
        0.9999999403953552
      ],
      "translation": [
        2.887100691850719e-08,
        1.2274413108825684,
        1.7695125364980413e-08
      ]
    },
    {
      "children": [
        34
      ],
      "name": "Foot.L_016",
      "rotation": [
        -0.6442715525627136,
        -0.09851618856191635,
        -0.2160591334104538,
        0.7269987463951111
      ],
      "scale": [
        1.0,
        0.9999999403953552,
        1.0
      ],
      "translation": [
        1.4901161193847656e-08,
        0.7366907596588135,
        4.470348358154297e-08
      ]
    },
    {
      "name": "Foot.L_end_024",
      "rotation": [
        1.3010426069826053e-17,
        0.0,
        0.0,
        1.0
      ],
      "translation": [
        1.1102230246251565e-16,
        0.5627630949020386,
        -1.7763568394002505e-15
      ]
    },
    {
      "children": [
        36
      ],
      "name": "Bone.004_017",
      "rotation": [
        -0.30848008394241333,
        -0.6886232495307922,
        0.31864267587661743,
        0.5736766457557678
      ],
      "scale": [
        1.0,
        1.0000001192092896,
        1.0000001192092896
      ]
    },
    {
      "children": [
        37
      ],
      "name": "Leg.R_018",
      "rotation": [
        0.25807544589042664,
        -0.011019662022590637,
        0.21386170387268066,
        0.942092776298523
      ],
      "scale": [
        1.0,
        0.9999998807907104,
        1.0000001192092896
      ],
      "translation": [
        5.494803190231323e-08,
        1.238871693611145,
        0.0
      ]
    },
    {
      "children": [
        38
      ],
      "name": "Foot.R_019",
      "rotation": [
        0.6434223651885986,
        0.00019264122238382697,
        -0.23449847102165222,
        0.728709876537323
      ],
      "scale": [
        0.9999999403953552,
        0.9999998807907104,
        0.9999999403953552
      ],
      "translation": [
        -3.725290653733282e-08,
        0.7501190900802612,
        5.960464477539063e-08
      ]
    },
    {
      "name": "Foot.R_end_025",
      "rotation": [
        1.2952208271133959e-17,
        -2.1804809501703983e-34,
        -1.6834819531348622e-17,
        1.0
      ],
      "translation": [
        0.0,
        0.559644341468811,
        0.0
      ]
    }
  ],
  "samplers": [
    {
      "magFilter": 9729,
      "minFilter": 9987,
      "wrapS": 10497,
      "wrapT": 10497
    }
  ],
  "scene": 0,
  "scenes": [
    {
      "name": "Sketchfab_Scene",
      "nodes": [
        0
      ]
    }
  ],
  "skins": [
    {
      "inverseBindMatrices": 4,
      "joints": [
        10,
        13,
        14,
        15,
        16,
        17,
        18,
        19,
        20,
        21,
        22,
        23,
        24,
        25,
        26,
        27,
        28,
        29,
        30,
        31,
        32,
        33,
        34,
        35,
        36,
        37,
        38
      ],
      "skeleton": 10
    }
  ],
  "textures": [
    {
      "sampler": 0,
      "source": 0
    }
  ]
}
